<svg xmlns="http://www.w3.org/2000/svg" width="1024" height="1024" viewBox="0 0 1024 1024">
  <!--
    The slide glyph: a screen on a stand, with a four-point sparkle on it.
    The screen is held back so the sparkle carries the weight, and the stand
    sits lighter still. Drawn in white — Icon Composer tints and lights the
    layer, so the artwork carries only shape and opacity.
  -->
  <g fill="#FFFFFF">
    <path d="M220 236H804A48 48 0 0 1 852 284V636A48 48 0 0 1 804 684H220A48 48 0 0 1 172 636V284A48 48 0 0 1 220 236Z" opacity="0.38"/>
    <path d="M512 290C530 402 556 428 668 446C556 464 530 490 512 602C494 490 468 464 356 446C468 428 494 402 512 290Z" opacity="0.98"/>
    <path d="M706 300C713 340 722 349 762 356C722 363 713 372 706 412C699 372 690 363 650 356C690 349 699 340 706 300Z" opacity="0.8"/>
    <path d="M496 684H528V780H496Z" opacity="0.6"/>
    <path d="M408 772H616A16 16 0 0 1 632 788A16 16 0 0 1 616 804H408A16 16 0 0 1 392 788A16 16 0 0 1 408 772Z" opacity="0.6"/>
  </g>
</svg>
